<?xml version="1.0" encoding="UTF-8"?>
<svg id="Layer_2" data-name="Layer 2" xmlns="http://www.w3.org/2000/svg" viewBox="0 0 1920 971">
  <defs>
    <style>
      .cls-1 {
        fill: #fff;
        fill-rule: evenodd;
      }
    </style>
  </defs>
  <g id="Layer_1-2" data-name="Layer 1">
    <path class="cls-1" d="M858.78,0c4.36,24.53,10.65,48.94,18.95,73.19,13.62,38.31,31.29,76.41,61.73,113.22,23.41-41.74,33.63-82.4,40.01-122.64,3.06-21.42,4.73-42.65,5.08-63.77h101.11c-.06,7.2-.19,14.4-.4,21.61-1.49,79.83-13.2,159.23-32.99,238.85-9.79,39.38-21.93,78.55-35.55,118.14-19.37,24.4-37.03,49.23-53.42,74.48-14.9,23.54-28.95,47.3-42.78,71.06-19.37-37.45-42.57-73.62-70.03-107.23-40.23-79.4-67.68-162.87-88.97-246.99-10.86-46.87-19.58-93.96-25.54-141.26-.72-9.46-1.64-19.01-2.83-28.67h125.63Zm514.24,0c.34,5.45,.89,11.07,1.7,16.9,25.86-2.24,46.85-8.55,65.27-16.9h189.1c-27.62,31.53-60.31,57.89-96.87,77.68-42.23,22.21-89.91,41.11-139.59,60.8h-.01c-53.74,21.3-109.83,43.54-163.91,71.89-10.65,5.35-21.08,11.13-31.5,17.12,10-56.07,20.43-107.87,34.26-157.52,6.62-23.88,13.85-47.17,21.78-69.98h119.77ZM315.6,31.24c20.43,17.34,43.63,31.25,70.24,41.31,26.82,9.63,56.4,16.05,94.29,12.63-2.74-35.06-12.7-61.78-25.21-85.17h154.48c9.21,55.98,23.5,110.94,42.5,163.93,9.15,38.52,19.79,77.9,33.84,116.43-1.65-.91-3.29-1.83-4.92-2.76h0c-4.91-2.77-9.82-5.54-15.09-7.95-60.87-29.11-129.62-44.52-198.58-45.8-40.44-.43-79.6,4.5-117.28,11.13-32.78-16.91-63.64-35.31-91.95-55.65-59.38-41.95-107.7-92.46-145.37-150.89-6.25-9.29-12.14-18.77-17.69-28.45h189.7c9.38,11.55,19.7,22.01,30.83,31.45l.21-.21Zm972.06,287.86c-22.77,13.27-44.91,26.97-66.83,41.31v-1.07l-32.14,22.47c-6.3,4.53-10.97,8.98-15.56,13.35-3,2.86-5.97,5.69-9.34,8.48-32.14,33.17-64.07,75.76-92.16,120.71-89.59,137.85-162.29,290.01-223.92,446.65h344.55c-2.91-6.16-5.67-12.56-8.25-19.24,44.91-3.64,83.01,3.85,119.19,14.77,4.49,1.42,8.94,2.92,13.34,4.47h482.08c-31.99-22.06-64.87-42.28-98.68-60.76-57.89-32.1-118.76-58.43-183.47-80.26-46.18-15.41-93.86-28.47-144.73-39.6-21.07-1.28-42.57-5.14-64.07-12.63,40.87-34.89,79.18-64.21,118.13-89.89,12.91-8.63,25.94-17.06,38.62-25.27h.01s.04-.03,.04-.03l.03-.02h.01s.01,0,.01,0h0c24.73-16,48.16-31.16,66.85-45.3,5.86-4.25,9.23-7.38,13.34-11.2h0c1.27-1.18,2.61-2.42,4.11-3.79,6.61-6.65,12.62-13.49,18.81-20.54l.56-.65c12.35-14.77,24.48-30.39,35.97-47.73,23.63-34.67,44.28-75.12,68.75-124.14,28.52,47.09,35.97,104.02,25.97,159.66-5.32,27.82-15.11,55.43-29.16,80.69-6.81,13.06-15.32,24.61-24.05,36.39-9.58,12.2-23.41,25.26-34.69,34.24-7.24,5.56-14.69,10.49-21.93,15.2,23.42,4.07,46.62,9.63,69.6,16.69,32.99,4.92,65.77,8.78,97.91,10.06,57.37,2.4,112.93-1.92,163.44-15.59v-149.52c-9.17,10.78-19.21,21.04-30.19,30.71-24.27,20.76-51.72,39.6-90.46,51.58-7.45-40.02-3.62-73.2,3.4-104.44,7.45-31.03,19.37-59.29,34.91-85.4,15.54-26.11,34.91-49.87,58.74-70.84,7.47-6.39,15.26-12.58,23.6-18.43V238.29c-33.63,18.18-69.13,33.12-105.76,44.43-81.09,24.4-167.08,32.32-249.66,20.97-54.92-7.28-108.56-22.26-157.94-45.8-41.29,19.26-81.09,38.95-118.98,61.21Zm632.34,554.99v50.91c-14.2-16.69-29.54-32.42-45.52-47.51,15.15-.38,30.35-1.49,45.52-3.4Zm0-771.99V0h-189.31c-5.16,10.47-10.79,20.76-16.91,30.81-31.08,53.08-77.48,99.31-128.35,133.77-23.2,16.05-47.03,29.54-70.87,41.74,17.45-1.5,34.48-3.21,51.51-5.35,73-8.13,142.6-23.33,210.29-43.23,48.8-15.02,96.6-33.5,143.64-55.62ZM0,94.29c1.17,1.82,2.37,3.64,3.57,5.44,47.46,74.69,118.77,133.77,198.37,166.94-32.99,6.85-64.92,12.41-96.84,14.77-34.83,2.75-69.91,2.41-105.1-1.01V94.29ZM0,741.45v129.87c50.75,6.4,105.01,3.47,160.23-6.03,31.71-5.35,63.64-13.48,95.78-22.47,19.37-8.78,39.16-16.69,59.38-23.11-2.24-1.45-4.49-2.87-6.74-4.28-5.04-3.16-10.05-6.3-14.76-9.85-92.16-69.99-138.56-197.76-95.57-300.92,31.5,45.37,58.32,82.19,86.63,114.5,28.31,31.89,56.62,59.07,87.9,82.61,31.08,23.33,64.07,44.73,102.8,63.57v.21c38.74,19.69,81.09,37.24,132.18,57.79-34.27,25.68-74.71,38.52-116.64,41.73-28.95,11.77-56.83,23.97-83.86,37.03-42.9,20.9-83.52,43.67-122.3,68.9h444.4c21.85-71.61,47.33-142.15,75.28-211.86,32.78-77.69,69.39-153.46,111.32-227.51-91.74-74.27-185.81-138.05-286.91-166.08-52.79-14.98-106.42-20.76-159.42-17.76-53.42,3.64-107.7,16.05-167.3,30.18-59.6,13.27-124.51,27.18-192.41,26.97-36.91,.12-73.89-3.42-109.99-10.43v164.65c16.87,13.89,31.87,29.36,45.08,46.11,18.73,23.76,34.27,50.3,45.55,80.04,10.86,29.96,18.73,62.5,16.6,103.16-39.8-6.85-69.6-21.83-96.21-39.38h-.21c-3.68-2.48-7.29-5.02-10.81-7.63Zm627.21-159.74c-16.82-25.68-37.04-47.51-59.81-65.92-22.77-18.19-48.53-33.17-77.26-43.88-29.16-10.49-60.66-17.76-100.25-14.98,5.96,39.38,20.22,68.7,36.61,95.03,16.81,25.9,37.04,47.73,59.6,66.13,22.77,18.41,48.32,33.17,77.05,44.09,29.16,10.49,60.66,17.76,100.25,14.98-5.96-39.59-20.01-68.92-36.61-95.24l.43-.21Zm630.23-40.66c-13.2,28.25-23.41,59.07-24.26,99.09,39.8-2.14,70.02-13.48,97.69-27.61,27.25-14.55,50.66-32.53,70.88-53.72,20.22-21.19,37.46-45.37,50.87-73.2,12.98-28.25,23.41-59.07,24.26-98.88-39.59,2.36-70.02,13.7-97.48,27.82-27.03,14.55-50.66,32.53-71.09,53.72-20.43,20.97-37.46,45.37-50.87,72.98v-.21Z"/>
  </g>
</svg>