<svg width="72" height="482" viewBox="0 0 72 482" fill="none" xmlns="http://www.w3.org/2000/svg">
<g clip-path="url(#clip0_1418_30695)">
<mask id="mask0_1418_30695" style="mask-type:alpha" maskUnits="userSpaceOnUse" x="-84" y="-1" width="156" height="484">
<rect width="482.811" height="155.801" transform="matrix(4.37114e-08 1 1 -4.37114e-08 -83.8008 -0.568359)" fill="url(#paint0_linear_1418_30695)"/>
</mask>
<g mask="url(#mask0_1418_30695)">
<path fill-rule="evenodd" clip-rule="evenodd" d="M0.00013806 348.946C0.000138055 348.727 -0.256789 348.609 -0.422965 348.751C-0.518958 348.834 -0.66072 348.834 -0.756713 348.751L-53.9939 303.061C-92.1209 270.338 -92.1209 211.334 -53.9939 178.612L-0.756718 132.921C-0.660718 132.839 -0.518963 132.839 -0.42297 132.921C-0.256795 133.064 0.0001329 132.946 0.000132894 132.727L0.000129712 -0.500006C0.000129705 -0.776144 0.223984 -1.00001 0.500122 -1.00001C0.77626 -1.00001 1.00011 -0.776152 1.00011 -0.500014L1.00012 91.592C1.00012 118.601 12.7935 144.264 33.2894 161.855L36.1628 164.321C83.0463 204.558 83.0464 277.114 36.1628 317.352L33.1287 319.956C12.7348 337.459 1.00012 362.994 1.00012 389.869L1.00013 481.5C1.00013 481.776 0.776272 482 0.500134 482C0.223995 482 0.000141233 481.776 0.000141227 481.5L0.00013806 348.946Z" fill="white"/>
</g>
<path d="M51.1273 241.694L17.0909 241.694M17.0909 241.694L17.0909 239.645L29.8545 229.4M17.0909 241.694L17.0909 243.743L29.8545 252.964" stroke="#111111" stroke-width="3"/>
</g>
<defs>
<linearGradient id="paint0_linear_1418_30695" x1="482.811" y1="155.801" x2="0" y2="155.801" gradientUnits="userSpaceOnUse">
<stop stop-opacity="0"/>
<stop offset="0.165322"/>
<stop offset="0.491207"/>
<stop offset="0.815634"/>
<stop offset="1" stop-opacity="0"/>
</linearGradient>
<clipPath id="clip0_1418_30695">
<rect width="72" height="482" fill="white" transform="matrix(-1 0 0 1 72 0)"/>
</clipPath>
</defs>
</svg>
