<svg width="321" height="58" viewBox="0 0 321 58" fill="none" xmlns="http://www.w3.org/2000/svg">
<g clip-path="url(#clip0_436_5184)">
<path d="M91.3074 24.4691C87.4509 24.4691 84.0545 25.779 81.3155 27.9263V13.0452C81.3155 12.4547 80.8444 12.0037 80.2528 12.0037C80.0556 12.0037 79.8584 12.0681 79.7159 12.1326L73.7887 14.7416C73.3176 14.8704 73.0547 15.2677 73.0547 15.7186V41.2292C73.0547 50.6883 80.5157 58 90.2337 58C99.9517 58 107.413 50.6883 107.413 41.2292C107.413 31.7701 100.357 24.4584 91.2964 24.4584L91.3074 24.4691ZM90.2447 50.3018C85.2487 50.3018 81.3922 46.5868 81.3922 41.2292C81.3922 35.8715 85.2487 32.1566 90.2447 32.1566C95.2406 32.1566 99.0971 35.8715 99.0971 41.2292C99.0971 46.5868 95.2406 50.3018 90.2447 50.3018Z" fill="#D1243E"/>
<path d="M163.552 12.0037C163.354 12.0037 163.157 12.0681 163.015 12.1326L157.088 14.7416C156.616 14.8704 156.354 15.2677 156.354 15.7186V56.3036C156.354 56.8941 156.825 57.3451 157.416 57.3451H163.409C164.143 57.3451 164.603 56.8834 164.603 56.3036V13.0452C164.603 12.4547 164.132 12.0037 163.541 12.0037H163.552Z" fill="#D1243E"/>
<path d="M145.573 25.6394H139.448C138.846 25.6394 138.385 26.1011 138.385 26.6809V42.9256C138.385 47.2955 135.121 50.3018 130.859 50.3018C126.597 50.3018 123.332 47.2955 123.332 42.9256V26.6809C123.332 26.0903 122.861 25.6394 122.269 25.6394H116.276C115.542 25.6394 115.082 26.1011 115.082 26.6809V42.9256C115.082 51.4721 121.94 58 130.859 58C139.777 58 146.635 51.4721 146.635 42.9256V26.8097C146.635 26.0903 146.164 25.6394 145.573 25.6394Z" fill="#D1243E"/>
<path d="M265.004 25.6394H258.682C258.014 25.6394 257.619 25.9615 257.488 26.3588L248.701 48.7342L239.783 26.3588C239.652 25.9722 239.246 25.6394 238.786 25.6394H231.993C231.391 25.6394 230.931 26.0259 230.931 26.552C230.931 26.8097 231.062 27.1426 231.128 27.3358L242.982 56.6257C243.114 57.0874 243.519 57.3451 244.045 57.3451H252.963C253.434 57.3451 253.763 57.0874 253.96 56.6901L265.88 27.3358C265.946 27.1426 266.078 26.8097 266.078 26.552C266.078 26.0259 265.606 25.6394 265.015 25.6394H265.004Z" fill="#D1243E"/>
<path d="M319.937 12.0037C319.74 12.0037 319.543 12.0681 319.4 12.1326L313.473 14.7416C313.002 14.8704 312.739 15.2677 312.739 15.7186V56.1748C312.739 56.8941 313.21 57.3451 313.802 57.3451H319.926C320.529 57.3451 320.989 56.8834 320.989 56.3036V13.0452C320.989 12.4547 320.518 12.0037 319.926 12.0037H319.937Z" fill="#D1243E"/>
<path d="M287.048 24.4691C277.593 24.4691 270.143 31.7808 270.143 41.2399C270.143 50.699 277.867 58.0107 288.056 58.0107C293.183 58.0107 297.971 56.0566 301.17 52.8571C301.301 52.6638 301.433 52.4705 301.433 52.1377C301.433 51.88 301.301 51.6116 301.104 51.4183L297.379 47.7034C297.182 47.5102 296.908 47.3813 296.645 47.3813C296.316 47.3813 296.043 47.5102 295.845 47.7034C293.72 49.3998 291.452 50.248 288.121 50.248C283.597 50.248 279.871 47.8967 278.601 44.1818H302.704C303.438 44.1818 304.04 43.5912 304.04 43.0114V41.2506C304.04 31.7915 296.514 24.4798 287.059 24.4798L287.048 24.4691ZM278.59 37.9759C279.784 34.1966 282.852 32.1029 287.048 32.1029C291.244 32.1029 294.443 34.4542 295.44 37.9759H278.601H278.59Z" fill="#D1243E"/>
<path d="M175.198 41.1003L186.121 27.4646C186.318 27.2714 186.516 26.9385 186.516 26.6164C186.516 26.0259 186.045 25.575 185.453 25.575H178.594C177.992 25.575 177.663 25.8971 177.4 26.2943L166.148 40.5849C165.754 41.0466 165.677 41.562 166.148 42.0237L177.795 56.7008C178.058 57.0229 178.397 57.3558 178.857 57.3558H186.176C186.779 57.3558 187.239 56.8941 187.239 56.3143C187.239 55.9922 187.042 55.7238 186.844 55.5305L175.198 41.1111V41.1003Z" fill="#D1243E"/>
<path d="M209.216 24.4691C199.301 24.4691 191.577 31.7808 191.577 41.2399C191.577 50.699 199.301 58.0107 209.216 58.0107C219.132 58.0107 226.855 50.699 226.855 41.2399C226.855 31.7808 219.132 24.4691 209.216 24.4691ZM209.216 50.3017C203.957 50.3017 199.827 46.5868 199.827 41.2291C199.827 35.8715 203.957 32.1566 209.216 32.1566C214.475 32.1566 218.606 35.8715 218.606 41.2291C218.606 46.5868 214.475 50.3017 209.216 50.3017Z" fill="#D1243E"/>
<path d="M39.4745 19.3154C39.4526 8.66457 30.6111 0 19.7318 0C10.9231 0 3.44019 5.69049 0.909348 13.5176C5.33558 13.5176 19.7318 13.5498 19.7318 13.5498C22.9857 13.5498 25.6371 16.1481 25.6371 19.3369C25.6371 20.4106 25.5823 29.3328 25.5932 32.9189C28.4856 32.9189 35.9795 32.8652 39.4526 32.8652C42.7175 32.8652 45.3579 35.4635 45.3688 38.6631C45.3688 41.8626 42.7175 44.4609 39.4526 44.4609C37.9406 44.4609 13.8155 44.4717 13.8155 44.4717C13.8155 44.4717 13.8155 28.7101 13.8155 25.1348C10.9998 25.1348 3.58261 25.124 0 25.124C0 29.5368 0 34.9804 0.021912 40.0589L0.043824 57.9785L19.3154 58.0107C26.8641 58.0107 34.9935 58.0322 39.4416 58.0322C50.3209 58.0322 59.1843 49.3569 59.1843 38.6846C59.1843 28.0122 50.3428 19.3584 39.4745 19.3369V19.3154Z" fill="#D1243E"/>
</g>
<defs>
<clipPath id="clip0_436_5184">
<rect width="321" height="58" fill="white"/>
</clipPath>
</defs>
</svg>
