<svg width="282" height="91" viewBox="0 0 282 91" fill="none" xmlns="http://www.w3.org/2000/svg">
<mask id="mask0_507_2736" style="mask-type:alpha" maskUnits="userSpaceOnUse" x="0" y="0" width="282" height="91">
<rect width="282" height="91" fill="url(#paint0_linear_507_2736)"/>
</mask>
<g mask="url(#mask0_507_2736)">
<path fill-rule="evenodd" clip-rule="evenodd" d="M188.143 29.9921C198.281 41.8044 213.071 48.6012 228.637 48.6012L281.344 48.6012C281.706 48.6012 282 48.8949 282 49.2573C282 49.6197 281.706 49.9135 281.344 49.9135H227.866C212.074 49.9135 197.07 56.8086 186.786 68.7916L185.455 70.3427C162.077 97.5818 119.923 97.5818 96.5448 70.3427L95.2134 68.7915C84.9291 56.8085 69.9252 49.9135 54.1341 49.9135H0.656144C0.293765 49.9135 0 49.6197 0 49.2573C0 48.8949 0.293766 48.6012 0.656145 48.6012L53.3625 48.6012C68.9285 48.6012 83.7185 41.8044 93.8562 29.9923L95.7371 27.8007C119.54 0.0667582 162.46 0.0667558 186.262 27.8007L188.143 29.9921Z" fill="white"/>
<path d="M132.376 60.3247C131.705 60.4506 131.077 60.6592 130.484 60.9425C129.891 61.2258 129.334 61.5839 128.812 62.0286C128.298 62.4812 127.815 62.9967 127.438 63.7326C128.247 63.8979 128.953 63.8506 129.624 63.7326C130.292 63.6066 130.924 63.3981 131.516 63.1108C132.109 62.8235 132.666 62.4654 133.184 62.0247C133.699 61.5721 134.181 61.0566 134.562 60.3207C133.754 60.1554 133.051 60.2066 132.376 60.3207" fill="#111111"/>
<path d="M145.121 45.0402C145.121 45.0402 145.132 45.0677 145.14 45.0795C145.124 45.0874 145.109 45.0992 145.097 45.1071C145.105 45.0835 145.117 45.0638 145.124 45.0402M146.008 47.2636C146.412 46.9999 146.82 46.7481 147.24 46.5041C147.939 46.0948 148.673 45.7328 149.434 45.3786C150.345 45.8115 151.334 46.087 152.346 46.2207C153.869 46.4293 155.455 46.2837 156.95 45.8351C158.446 45.3747 159.839 44.5876 160.981 43.5487C162.12 42.5098 163.026 41.223 163.49 39.7748C162.234 40.6249 161.087 41.3922 159.89 42.0179C158.705 42.6515 157.496 43.1552 156.252 43.5369C155.004 43.9029 153.72 44.1823 152.374 44.3318C152.06 44.3712 151.746 44.4027 151.424 44.4302C151.864 44.2059 152.303 43.958 152.731 43.6628C153.669 43.0293 154.525 42.1793 155.098 41.2033C155.695 40.2274 156.036 39.1295 156.193 38.0473C156.444 35.8593 156.001 33.75 155.243 31.8335C155.494 33.8799 155.569 35.9537 155.039 37.8151C154.533 39.6765 153.339 41.2073 151.75 42.0651C150.129 42.9152 148.072 43.5015 146.153 44.505C145.957 44.6034 145.764 44.7096 145.572 44.8198C145.756 43.7888 145.949 42.8365 146.204 41.9235C146.518 40.7941 146.906 39.7355 147.397 38.7202C147.884 37.7049 148.461 36.7368 149.152 35.7885C149.834 34.8283 150.627 33.9192 151.518 32.9079C150.168 33.0338 148.896 33.6241 147.817 34.4623C146.82 35.2336 146 36.2489 145.403 37.3822C145.266 36.9218 145.101 36.4692 144.905 36.0324C144.206 34.4662 143.17 33.0574 141.812 32.0697C142.373 33.6477 142.832 35.1273 143.119 36.6149C143.417 38.0984 143.551 39.5663 143.507 41.0341C143.48 42.502 143.264 43.9619 142.899 45.4258C142.718 46.1499 142.495 46.8701 142.244 47.5981C141.886 48.0467 141.561 48.5032 141.258 48.9675C140.984 49.4004 140.725 49.8372 140.469 50.274C140.112 49.5854 139.684 48.9203 139.178 48.3025C138.436 46.8425 137.93 45.3078 137.537 43.7612C137.337 42.8994 137.176 42.0337 137.066 41.164C137.047 40.9082 137.019 40.6485 136.98 40.3848C136.87 39.2357 136.847 38.0866 136.925 36.9572C137.082 34.7181 137.655 32.5419 138.841 30.6766C140.03 28.8074 141.89 27.371 144.1 26.2573C141.651 26.3872 139.1 27.5009 137.357 29.5354C135.763 31.3259 134.904 33.6556 134.617 35.9773C133.844 35.3005 132.933 34.7889 131.984 34.4938C130.414 34.0215 128.749 34.053 127.321 34.659C128.804 35.0486 130.119 35.5445 131.242 36.2213C132.349 36.8982 133.267 37.7718 133.915 38.791C134.248 39.3065 134.499 39.8811 134.711 40.5068C134.88 41.5811 135.151 42.6358 135.516 43.651C135.685 44.3594 135.881 45.0835 136.14 45.7918C136.018 45.7249 135.901 45.6541 135.771 45.595C134.649 45.0599 133.381 44.7765 132.109 44.7529C131.363 44.745 130.641 44.8355 129.946 44.9575C129.342 44.6467 128.773 44.3082 128.251 43.9344C127.156 43.1631 126.265 42.2344 125.57 41.16C124.141 39.0429 123.725 36.3591 123.812 33.2738C122.827 34.5016 122.328 36.0797 122.246 37.7088C122.187 39.338 122.619 41.0656 123.561 42.4705C124.436 43.8439 125.751 44.93 127.219 45.54C126.61 45.6659 126.021 45.7682 125.433 45.8115C124.432 45.8902 123.419 45.8312 122.407 45.6344C120.369 45.2448 118.407 44.2492 116.464 43.0214C117.704 44.9575 119.581 46.5749 121.885 47.4407C123.031 47.8657 124.279 48.086 125.523 48.0821C126.775 48.086 127.972 47.8303 129.071 47.5863C130.17 47.3265 131.171 47.0983 132.156 47.0314C133.134 46.9763 134.123 47.0826 135.096 47.358C136.96 47.8735 138.695 49.0462 140.387 50.4118C139.614 51.7734 138.939 53.1664 138.334 54.5949C137.549 56.5468 136.87 58.5341 136.372 60.5725C135.858 62.6071 135.555 64.6927 135.394 66.7745C135.3 68.868 135.387 70.9694 135.807 73C135.912 70.9301 136.144 68.9113 136.552 66.9279C136.98 64.9485 137.514 63.0045 138.158 61.0959C139.488 57.3102 141.109 53.5718 143.256 50.278C143.774 49.4516 144.363 48.6685 144.956 48.0585C145.113 47.9286 145.223 47.7948 145.415 47.6571L146.008 47.2439V47.2636Z" fill="#111111"/>
<path d="M132.266 54.7087C131.552 54.3624 130.944 53.9689 130.371 53.54C129.794 53.1071 129.272 52.6073 128.749 52.021C128.227 51.4268 127.733 50.7499 127.152 49.9156C126.359 51.8124 127.215 54.1617 128.914 55.4486C129.04 55.543 129.177 55.6217 129.311 55.7083C128.938 55.8263 128.573 55.9719 128.216 56.1333C127.623 56.2986 127.034 56.4481 126.449 56.5465C124.773 56.8338 123.145 56.7944 121.775 56.2002C120.381 55.6256 119.318 54.4766 118.474 52.993C118.066 52.261 117.701 51.474 117.449 50.6397C117.171 49.8054 117.033 48.9397 117.057 47.9795C116.519 48.7823 116.311 49.8054 116.288 50.7932C116.288 51.7849 116.433 52.7883 116.751 53.7485C117.073 54.7048 117.551 55.6296 118.23 56.4639C118.929 57.3099 119.812 57.9632 120.821 58.4079C122.038 58.9391 123.333 59.069 124.569 58.9391C124.177 59.4153 123.82 59.915 123.525 60.4502C122.834 61.7292 122.383 63.1774 122.532 64.6255C123.345 63.4528 124.173 62.4651 125.048 61.5521C125.92 60.6431 126.846 59.8363 127.839 59.1201C128.824 58.396 129.872 57.7743 131.006 57.2234C131.505 56.9833 132.019 56.759 132.553 56.5426C133.326 56.4835 134.072 56.2474 134.704 55.7752C133.762 55.3974 132.981 55.0747 132.266 54.7127" fill="#111111"/>
<path d="M118.175 58.7783C117.771 58.4438 117.32 58.1722 116.805 57.9716C116.283 57.7787 115.718 57.6449 115 57.6921C115.082 58.4084 115.322 58.9436 115.604 59.4197C115.895 59.8919 116.244 60.2894 116.645 60.6239C117.045 60.9623 117.5 61.2339 118.014 61.4306C118.536 61.6234 119.102 61.7612 119.824 61.71C119.741 60.9899 119.506 60.4547 119.219 59.9785C118.929 59.5063 118.58 59.1088 118.179 58.7743" fill="#111111"/>
<path d="M118.49 40.1796C118.713 40.6912 119.012 41.1634 119.396 41.6041C119.789 42.037 120.248 42.4423 120.931 42.7493C121.163 42.037 121.174 41.4231 121.123 40.8407C121.06 40.2583 120.911 39.7192 120.684 39.2115C120.46 38.7039 120.162 38.2277 119.777 37.7909C119.384 37.358 118.925 36.9527 118.246 36.6458C118.015 37.3541 118.003 37.968 118.058 38.5543C118.121 39.1328 118.27 39.6759 118.494 40.1835" fill="#111111"/>
<path d="M161.063 38.3185C161.428 37.8266 161.703 37.3032 161.899 36.7483C162.096 36.1974 162.217 35.615 162.253 35.005C162.276 34.3911 162.233 33.7497 161.966 33.0295C161.303 33.4152 160.859 33.8756 160.486 34.3675C160.121 34.8594 159.847 35.3828 159.646 35.9377C159.446 36.4886 159.325 37.0671 159.289 37.681C159.266 38.2949 159.309 38.9363 159.58 39.6565C160.247 39.2748 160.69 38.8104 161.063 38.3185Z" fill="#111111"/>
<path d="M129.314 41.2112C129.691 41.53 130.119 41.7858 130.61 41.9707C131.104 42.1478 131.65 42.2659 132.348 42.2029C132.293 41.5024 132.081 40.983 131.822 40.5265C131.559 40.0739 131.234 39.6922 130.853 39.3774C130.476 39.0586 130.044 38.8029 129.554 38.6218C129.055 38.4447 128.514 38.3267 127.815 38.3857C127.874 39.0823 128.086 39.6017 128.345 40.0621C128.608 40.5147 128.934 40.8964 129.31 41.2151" fill="#111111"/>
<path d="M149.674 37.9768C149.379 38.3467 149.148 38.7678 148.991 39.2479C148.841 39.7358 148.751 40.2671 148.845 40.9479C149.528 40.8888 150.027 40.6763 150.466 40.4206C150.898 40.1608 151.255 39.8381 151.55 39.4643C151.844 39.0944 152.072 38.6694 152.229 38.1893C152.378 37.7013 152.472 37.1701 152.374 36.4893C151.691 36.5522 151.196 36.7608 150.757 37.0166C150.325 37.2802 149.968 37.599 149.674 37.9689" fill="#111111"/>
<path d="M135.06 51.3328C134.75 50.8606 134.378 50.4592 133.958 50.1207C133.538 49.7863 133.063 49.5108 132.533 49.314C131.995 49.1212 131.414 48.9874 130.684 49.0386C130.794 49.7626 131.057 50.3018 131.359 50.7858C131.669 51.262 132.042 51.6634 132.458 52.0018C132.878 52.3402 133.349 52.6118 133.879 52.8124C134.417 53.0053 134.998 53.1391 135.728 53.0879C135.618 52.3599 135.359 51.8208 135.053 51.3367" fill="#111111"/>
<path d="M123.698 54.4105C124.188 54.7332 124.738 55.0087 125.472 55.1346C125.511 54.3869 125.366 53.7887 125.166 53.2378C124.958 52.6908 124.671 52.2028 124.326 51.766C123.98 51.3292 123.568 50.9396 123.085 50.613C122.595 50.2903 122.045 50.0148 121.307 49.8889C121.264 50.6366 121.409 51.2348 121.61 51.7896C121.822 52.3366 122.104 52.8246 122.45 53.2614C122.799 53.6982 123.207 54.0839 123.694 54.4105" fill="#111111"/>
<path d="M165.15 50.6283C165.346 49.6366 165.362 48.6252 165.232 47.6375C165.083 46.6616 164.746 45.6738 164.11 44.9458C164.259 45.8942 164.232 46.7678 164.059 47.6336C163.918 48.4914 163.655 49.3218 163.344 50.101C162.697 51.679 161.786 52.9579 160.479 53.7056C159.2 54.473 157.586 54.7209 155.887 54.6501C155.294 54.6265 154.69 54.5556 154.081 54.4651C153.658 54.3353 153.23 54.2329 152.798 54.1582C152.931 54.0716 153.069 53.9811 153.202 53.8788C153.41 53.7135 153.665 53.4734 153.842 53.2491C154.003 53.0327 154.16 52.8202 154.286 52.5801C154.545 52.1158 154.725 51.6081 154.823 51.0966C155.008 50.0734 154.87 49.0266 154.344 48.1609C153.893 49.0621 153.512 49.8058 153.077 50.4433C152.865 50.7621 152.641 51.0493 152.413 51.3209C152.296 51.4547 152.182 51.5845 152.056 51.7105C151.938 51.8167 151.876 51.8836 151.734 51.9859C151.212 52.3794 150.49 52.8163 149.788 53.2846C149.069 53.7568 148.363 54.2959 147.609 54.9373C148.006 55.0751 148.402 55.1459 148.791 55.1695C149.729 55.3742 150.608 55.6142 151.46 55.8975C152.653 56.2989 153.775 56.783 154.843 57.3733C155.918 57.9596 156.943 58.6404 157.92 59.4274C158.905 60.2224 159.855 61.092 160.809 62.1506C160.77 60.6946 160.138 59.3173 159.29 58.1367C158.929 57.6409 158.509 57.1922 158.061 56.7712C159.306 56.7397 160.569 56.4445 161.712 55.7637C162.658 55.1971 163.45 54.4336 164.035 53.5049C164.604 52.592 164.962 51.6121 165.158 50.6204" fill="#111111"/>
<path d="M165.637 54.8275C165.15 55.0912 164.734 55.4217 164.381 55.8034C164.023 56.1852 163.725 56.6259 163.501 57.1296C163.282 57.6412 163.113 58.2 163.125 58.9241C163.847 58.8808 164.392 58.6722 164.883 58.4164C165.37 58.1528 165.786 57.8222 166.139 57.4405C166.492 57.0548 166.791 56.6141 167.014 56.1104C167.234 55.5988 167.403 55.04 167.395 54.3159C166.677 54.3631 166.131 54.5717 165.641 54.8275" fill="#111111"/>
<path d="M146.682 50.5851C146.439 51.1046 146.251 51.6712 146.235 52.4071C146.969 52.3678 147.526 52.1592 148.036 51.8995C148.539 51.6319 148.971 51.3013 149.343 50.9117C149.716 50.5221 150.034 50.0775 150.282 49.5659C150.521 49.0464 150.713 48.4798 150.729 47.7478C149.999 47.7911 149.438 47.9997 148.931 48.2594C148.433 48.527 147.997 48.8575 147.62 49.2471C147.244 49.6328 146.93 50.0814 146.682 50.589" fill="#111111"/>
<path d="M157.382 49.6362C157.095 50.1163 156.876 50.6357 156.738 51.2063C156.609 51.7809 156.538 52.3908 156.676 53.1267C157.39 52.9064 157.896 52.5601 158.344 52.1783C158.783 51.7927 159.14 51.3559 159.431 50.8797C159.721 50.4035 159.941 49.8802 160.078 49.3135C160.208 48.7389 160.275 48.129 160.137 47.3892C159.423 47.6095 158.913 47.9519 158.465 48.3336C158.026 48.7193 157.669 49.1561 157.382 49.6362Z" fill="#111111"/>
<path d="M149.363 59.2585C148.794 58.9043 148.186 58.6171 147.526 58.4085C146.859 58.2078 146.157 58.0701 145.328 58.137C145.631 58.9161 146.062 59.4907 146.529 60.0023C147.004 60.506 147.526 60.9349 148.092 61.293C148.657 61.6511 149.269 61.9384 149.928 62.143C150.592 62.3437 151.298 62.4814 152.13 62.4106C151.828 61.6314 151.396 61.0569 150.929 60.5414C150.458 60.0377 149.932 59.6087 149.367 59.2546" fill="#111111"/>
<path d="M140.014 35.3911C139.587 36.1585 139.398 36.9062 139.28 37.646C139.171 38.3858 139.159 39.1138 139.225 39.8379C139.288 40.5581 139.437 41.2743 139.681 41.9826C139.932 42.687 140.258 43.3875 140.819 44.0644C141.251 43.297 141.439 42.5493 141.557 41.8095C141.663 41.0697 141.679 40.3416 141.612 39.6176C141.541 38.8935 141.396 38.1812 141.153 37.4728C140.901 36.7684 140.576 36.068 140.018 35.3911" fill="#111111"/>
</g>
</svg>
