<svg width="49" height="48" viewBox="0 0 49 48" fill="none" xmlns="http://www.w3.org/2000/svg">
<circle cx="24.75" cy="24" r="23.5" stroke="white"/>
<path fill-rule="evenodd" clip-rule="evenodd" d="M21.4768 15.7967C22.3281 15.7593 22.6028 15.75 24.7531 15.75C26.9028 15.75 27.1784 15.7593 28.0331 15.7999C28.9063 15.8384 29.5175 15.9807 30.0582 16.1895C30.6285 16.4044 31.1479 16.7428 31.5771 17.1779L31.5747 17.1756L31.3378 17.4181L31.5794 17.1802L31.5771 17.1779C32.0165 17.6079 32.3517 18.1245 32.5695 18.6999C32.7787 19.2384 32.921 19.8529 32.9595 20.7258C32.9969 21.578 33 21.8538 33 24.0016C33 26.1515 32.9907 26.4261 32.9533 27.2773C32.9148 28.1514 32.7721 28.763 32.563 29.304C32.1174 30.4562 31.2062 31.3673 30.0538 31.8129C29.515 32.0224 28.9001 32.1648 28.0264 32.2033C27.175 32.2408 26.9003 32.25 24.7501 32.25C22.5998 32.25 22.325 32.2408 21.4737 32.2033C20.6001 32.1648 19.9889 32.0225 19.448 31.8136C18.8775 31.5987 18.3579 31.2601 17.9286 30.8248L17.9305 30.8266L18.1684 30.585L17.9268 30.8229L17.9286 30.8248C17.4935 30.3959 17.155 29.8797 16.9368 29.3032C16.7276 28.7648 16.5852 28.1503 16.5467 27.2773C16.5093 26.4262 16.5 26.1515 16.5 24.0016C16.5 21.8522 16.5093 21.5767 16.5499 20.7221C16.5884 19.8491 16.7307 19.2381 16.9396 18.6974C17.1546 18.1273 17.4929 17.6079 17.9281 17.1788L17.9259 17.1812L18.1684 17.4181L17.9305 17.1765L17.9281 17.1788C18.3582 16.7394 18.875 16.4043 19.4506 16.1866C19.989 15.9775 20.6037 15.8352 21.4768 15.7967ZM24.7501 20.0921C22.5926 20.0921 20.8422 21.8424 20.8422 24C20.8422 26.1575 22.5926 27.9079 24.7501 27.9079C26.9076 27.9079 28.658 26.1575 28.658 24C28.658 21.8424 26.9076 20.0921 24.7501 20.0921ZM29.5263 17.4868C28.5672 17.4868 27.7896 18.2643 27.7896 19.2237C27.7896 20.1829 28.5672 20.9605 29.5263 20.9605C30.4856 20.9605 31.2632 20.1829 31.2632 19.2237C31.2632 18.2643 30.4855 17.4868 29.5263 17.4868Z" fill="white"/>
</svg>
