<svg width="663" height="465" viewBox="0 0 663 465" fill="none" xmlns="http://www.w3.org/2000/svg">
<g clip-path="url(#clip0_815_1476)">
<path d="M223.334 427.21C214.909 428.79 207.026 431.409 199.586 434.966C192.147 438.523 185.151 443.018 178.598 448.601C172.143 454.282 166.083 460.753 161.354 469.991C171.503 472.066 180.371 471.474 188.796 469.991C197.172 468.411 205.105 465.792 212.544 462.186C219.984 458.58 226.98 454.084 233.484 448.551C239.938 442.87 245.998 436.398 250.777 427.16C240.628 425.085 231.808 425.728 223.334 427.16" fill="#E0B900"/>
<path d="M383.312 235.33C383.312 235.33 383.46 235.675 383.559 235.824C383.362 235.922 383.164 236.071 383.017 236.169C383.115 235.873 383.263 235.626 383.362 235.33M394.447 263.242C399.522 259.932 404.646 256.77 409.918 253.707C418.688 248.569 427.901 244.024 437.459 239.578C448.89 245.012 461.305 248.47 474.017 250.15C493.133 252.768 513.038 250.94 531.81 245.309C550.581 239.529 568.072 229.648 582.409 216.606C596.697 203.564 608.078 187.41 613.892 169.23C598.126 179.901 583.74 189.534 568.712 197.389C553.833 205.343 538.658 211.666 523.04 216.458C507.372 221.052 491.261 224.56 474.362 226.437C470.42 226.931 466.479 227.326 462.439 227.672C467.957 224.856 473.475 221.744 478.845 218.039C490.621 210.085 501.361 199.415 508.555 187.163C516.044 174.911 520.33 161.128 522.301 147.543C525.454 120.075 519.887 93.596 510.378 69.5374C513.531 95.2263 514.467 121.261 507.816 144.628C501.46 167.995 486.482 187.212 466.528 197.982C446.18 208.653 420.363 216.013 396.27 228.611C393.807 229.846 391.392 231.18 388.978 232.563C391.294 219.62 393.708 207.665 396.911 196.203C400.852 182.025 405.73 168.736 411.888 155.99C417.998 143.245 425.24 131.092 433.912 119.186C442.485 107.132 452.437 95.7203 463.621 83.0241C446.673 84.6049 430.709 92.0152 417.16 102.538C404.646 112.22 394.349 124.966 386.86 139.194C385.135 133.414 383.066 127.733 380.603 122.249C371.833 102.587 358.826 84.9013 341.778 72.5015C348.824 92.3116 354.588 110.887 358.185 129.56C361.929 148.185 363.605 166.612 363.063 185.039C362.718 203.465 360.008 221.793 355.426 240.171C353.16 249.261 350.351 258.301 347.198 267.441C342.714 273.072 338.625 278.803 334.831 284.632C331.383 290.067 328.131 295.55 324.928 301.034C320.445 292.389 315.074 284.04 308.719 276.284C299.407 257.956 293.051 238.689 288.124 219.274C285.611 208.455 283.591 197.587 282.212 186.669C281.966 183.458 281.621 180.197 281.128 176.887C279.748 162.462 279.453 148.037 280.438 133.858C282.409 105.749 289.602 78.4297 304.482 55.0133C319.41 31.5475 342.764 13.5158 370.502 -0.464844C339.758 1.16541 307.733 15.1461 285.858 40.6868C265.854 63.1646 255.064 92.4104 251.468 121.557C241.762 113.06 230.331 106.638 218.408 102.933C198.7 97.0047 177.81 97.4 159.876 105.008C178.5 109.899 195.005 116.123 209.096 124.62C222.99 133.117 234.519 144.085 242.649 156.88C246.837 163.351 249.99 170.564 252.65 178.419C254.769 191.905 258.168 205.145 262.75 217.891C264.869 226.783 267.333 235.873 270.584 244.765C269.057 243.925 267.579 243.036 265.953 242.295C251.862 235.577 235.948 232.02 219.985 231.723C210.624 231.624 201.558 232.761 192.837 234.292C185.25 230.389 178.106 226.141 171.553 221.448C157.807 211.765 146.623 200.106 137.902 186.619C119.968 160.041 114.746 126.349 115.83 87.6184C103.463 103.032 97.2059 122.842 96.1712 143.294C95.4322 163.746 100.852 185.434 112.676 203.07C123.663 220.311 140.169 233.946 158.595 241.604C150.959 243.184 143.568 244.469 136.178 245.012C123.614 246 110.903 245.259 98.1913 242.789C72.6205 237.898 47.9859 225.4 23.5977 209.986C39.1667 234.292 62.7174 254.596 91.6385 265.465C106.025 270.8 121.693 273.566 137.311 273.517C153.028 273.566 168.055 270.355 181.85 267.292C195.646 264.032 208.209 261.167 220.576 260.327C232.844 259.635 245.26 260.969 257.479 264.427C280.882 270.899 302.659 285.621 323.894 302.763C314.188 319.856 305.713 337.344 298.126 355.277C288.272 379.78 279.748 404.728 273.491 430.318C267.037 455.859 263.243 482.042 261.223 508.175C260.041 534.457 261.125 560.837 266.396 586.329C267.727 560.343 270.634 535 275.758 510.102C281.128 485.253 287.829 460.848 295.909 436.889C312.611 389.364 332.959 342.432 359.909 301.083C366.413 290.709 373.803 280.878 381.243 273.221C383.214 271.59 384.593 269.911 387.007 268.182L394.447 262.995V263.242Z" fill="#E0B900"/>
<path d="M221.954 356.711C212.987 352.364 205.35 347.424 198.157 342.039C190.914 336.605 184.362 330.331 177.809 322.97C171.256 315.51 165.048 307.013 157.756 296.54C147.804 320.352 158.544 349.844 179.878 365.999C181.455 367.184 183.179 368.173 184.854 369.259C180.174 370.741 175.592 372.569 171.108 374.595C163.668 376.67 156.278 378.547 148.937 379.782C127.899 383.388 107.452 382.894 90.2573 375.435C72.7667 368.222 59.4147 353.797 48.8219 335.172C43.6979 325.983 39.1158 316.103 35.9626 305.63C32.4645 295.157 30.7401 284.288 31.0357 272.234C24.2858 282.312 21.6745 295.157 21.3789 307.557C21.3789 320.006 23.2019 332.603 27.1927 344.657C31.2328 356.662 37.2436 368.271 45.7672 378.744C54.5371 389.366 65.6227 397.567 78.2848 403.149C93.5583 409.818 109.817 411.448 125.337 409.818C120.41 415.796 115.927 422.07 112.231 428.788C103.56 444.844 97.894 463.024 99.7662 481.204C109.965 466.482 120.361 454.082 131.348 442.621C142.286 431.209 153.913 421.082 166.378 412.091C178.745 403.001 191.9 395.195 206.139 388.279C212.396 385.266 218.85 382.45 225.551 379.732C235.257 378.991 244.618 376.027 252.55 370.099C240.725 365.357 230.921 361.306 221.954 356.761" fill="#E0B900"/>
<path d="M45.0775 407.79C40.0028 403.591 34.3369 400.182 27.8826 397.662C21.3298 395.242 14.235 393.562 5.21875 394.155C6.2534 403.146 9.25879 409.865 12.8062 415.842C16.4521 421.77 20.8371 426.76 25.8625 430.959C30.888 435.208 36.6032 438.616 43.0575 441.086C49.6103 443.507 56.7051 445.236 65.7706 444.594C64.736 435.553 61.7798 428.835 58.1832 422.857C54.5373 416.929 50.1523 411.939 45.1268 407.74" fill="#E0B900"/>
<path d="M49.0203 174.324C51.8287 180.746 55.5731 186.674 60.4015 192.207C65.3284 197.641 71.0929 202.73 79.6658 206.583C82.5726 197.641 82.7205 189.935 82.08 182.623C81.2917 175.312 79.4194 168.544 76.5618 162.171C73.7535 155.798 70.009 149.82 65.1806 144.337C60.2537 138.903 54.4892 133.814 45.9656 129.961C43.0587 138.853 42.9109 146.56 43.6007 153.921C44.389 161.183 46.2612 168 49.0696 174.373" fill="#E0B900"/>
<path d="M583.441 150.962C588.023 144.787 591.472 138.217 593.935 131.251C596.399 124.335 597.926 117.023 598.37 109.366C598.665 101.659 598.123 93.6069 594.773 84.5664C586.446 89.4078 580.879 95.1878 576.198 101.363C571.616 107.538 568.167 114.109 565.655 121.074C563.142 127.991 561.615 135.253 561.171 142.959C560.876 150.666 561.418 158.718 564.817 167.759C573.193 162.967 578.76 157.138 583.441 150.962Z" fill="#E0B900"/>
<path d="M184.905 187.267C189.635 191.268 195.005 194.479 201.164 196.801C207.372 199.024 214.22 200.506 222.99 199.716C222.3 190.922 219.64 184.401 216.388 178.671C213.087 172.99 208.998 168.198 204.218 164.246C199.489 160.244 194.069 157.033 187.91 154.76C181.653 152.537 174.854 151.055 166.084 151.796C166.823 160.54 169.484 167.061 172.735 172.841C176.036 178.523 180.126 183.315 184.856 187.316" fill="#E0B900"/>
<path d="M440.463 146.652C436.768 151.296 433.861 156.582 431.89 162.609C430.018 168.735 428.885 175.404 430.067 183.951C438.64 183.21 444.897 180.542 450.415 177.331C455.835 174.07 460.319 170.019 464.014 165.326C467.709 160.682 470.567 155.347 472.537 149.32C474.41 143.194 475.592 136.525 474.36 127.979C465.787 128.769 459.58 131.387 454.061 134.598C448.642 137.908 444.158 141.91 440.463 146.554" fill="#E0B900"/>
<path d="M257.033 314.318C253.141 308.39 248.46 303.351 243.188 299.102C237.916 294.903 231.955 291.445 225.303 288.975C218.554 286.554 211.262 284.874 202.098 285.517C203.477 294.607 206.778 301.375 210.572 307.451C214.464 313.429 219.145 318.468 224.367 322.716C229.639 326.965 235.551 330.373 242.203 332.893C248.953 335.314 256.245 336.993 265.409 336.351C264.029 327.212 260.777 320.444 256.934 314.367" fill="#E0B900"/>
<path d="M114.4 352.956C120.558 357.007 127.456 360.465 136.669 362.046C137.162 352.66 135.339 345.15 132.826 338.234C130.215 331.367 126.618 325.242 122.283 319.758C117.947 314.274 112.774 309.384 106.714 305.283C100.555 301.232 93.6573 297.774 84.3947 296.193C83.8527 305.58 85.6756 313.089 88.1884 320.054C90.8489 326.921 94.3963 333.047 98.732 338.531C103.117 344.014 108.241 348.856 114.35 352.956" fill="#E0B900"/>
<path d="M634.733 305.477C637.196 293.027 637.394 280.331 635.768 267.931C633.895 255.68 629.658 243.28 621.677 234.141C623.549 246.046 623.204 257.014 621.036 267.882C619.262 278.652 615.961 289.075 612.069 298.857C603.94 318.667 592.509 334.722 576.103 344.109C560.041 353.742 539.791 356.854 518.458 355.965C511.018 355.669 503.43 354.78 495.794 353.643C490.473 352.013 485.102 350.729 479.683 349.79C481.358 348.703 483.082 347.567 484.757 346.283C487.369 344.208 490.571 341.194 492.788 338.378C494.808 335.661 496.779 332.993 498.356 329.98C501.608 324.151 503.874 317.778 505.106 311.355C507.421 298.511 505.697 285.37 499.095 274.502C493.429 285.815 488.65 295.152 483.181 303.155C480.52 307.156 477.712 310.763 474.854 314.171C473.376 315.851 471.947 317.481 470.371 319.062C468.893 320.396 468.104 321.236 466.331 322.52C459.778 327.46 450.712 332.944 441.893 338.823C432.877 344.751 424.009 351.519 414.549 359.572C419.525 361.301 424.501 362.19 429.379 362.486C441.154 365.055 452.191 368.069 462.882 371.626C477.86 376.665 491.951 382.741 505.352 390.151C518.852 397.512 531.711 406.059 543.979 415.939C556.346 425.918 568.269 436.836 580.241 450.125C579.749 431.846 571.816 414.556 561.174 399.735C556.641 393.511 551.369 387.879 545.753 382.593C561.371 382.198 577.236 378.492 591.573 369.946C603.447 362.832 613.399 353.248 620.741 341.589C627.885 330.128 632.368 317.827 634.832 305.378" fill="#E0B900"/>
<path d="M640.84 358.192C634.731 361.502 629.508 365.651 625.074 370.443C620.591 375.235 616.846 380.768 614.038 387.092C611.279 393.514 609.16 400.529 609.308 409.619C618.374 409.076 625.222 406.457 631.381 403.246C637.49 399.936 642.713 395.786 647.147 390.994C651.581 386.153 655.325 380.62 658.134 374.297C660.893 367.874 663.011 360.859 662.913 351.77C653.897 352.362 647.048 354.981 640.89 358.192" fill="#E0B900"/>
<path d="M402.919 304.933C399.865 311.454 397.5 318.568 397.303 327.806C406.516 327.312 413.512 324.694 419.917 321.433C426.224 318.074 431.643 313.924 436.324 309.033C441.005 304.143 444.995 298.56 448.099 292.138C451.105 285.617 453.519 278.503 453.716 269.314C444.552 269.858 437.506 272.476 431.151 275.737C424.893 279.096 419.425 283.246 414.695 288.137C409.965 292.978 406.023 298.61 402.919 304.982" fill="#E0B900"/>
<path d="M537.228 293.033C533.631 299.06 530.872 305.581 529.148 312.744C527.522 319.957 526.635 327.614 528.359 336.852C537.326 334.085 543.682 329.738 549.299 324.946C554.817 320.105 559.3 314.621 562.946 308.644C566.592 302.666 569.351 296.095 571.076 288.982C572.702 281.769 573.539 274.112 571.815 264.824C562.848 267.591 556.443 271.889 550.826 276.681C545.308 281.522 540.824 287.006 537.228 293.033Z" fill="#E0B900"/>
<path d="M436.571 413.827C429.427 409.381 421.79 405.775 413.513 403.156C405.137 400.637 396.318 398.908 385.922 399.748C389.716 409.529 395.135 416.742 400.998 423.164C406.96 429.487 413.513 434.872 420.607 439.368C427.702 443.863 435.388 447.47 443.665 450.039C451.992 452.558 460.86 454.287 471.305 453.398C467.512 443.616 462.092 436.404 456.229 429.932C450.317 423.609 443.715 418.224 436.62 413.778" fill="#E0B900"/>
<path d="M319.212 114.201C313.842 123.835 311.477 133.221 309.999 142.508C308.62 151.796 308.472 160.935 309.309 170.025C310.098 179.066 311.97 188.057 315.025 196.949C318.178 205.792 322.267 214.585 329.313 223.083C334.732 213.449 337.097 204.063 338.575 194.775C339.906 185.488 340.103 176.349 339.265 167.259C338.378 158.169 336.555 149.227 333.501 140.335C330.347 131.492 326.258 122.698 319.262 114.201" fill="#E0B900"/>
</g>
</svg>
