<svg width="91" height="282" viewBox="0 0 91 282" fill="none" xmlns="http://www.w3.org/2000/svg">
<mask id="mask0_937_63" style="mask-type:alpha" maskUnits="userSpaceOnUse" x="0" y="0" width="91" height="282">
<rect x="91" width="282" height="91" transform="rotate(90 91 0)" fill="url(#paint0_linear_937_63)"/>
</mask>
<g mask="url(#mask0_937_63)">
<path fill-rule="evenodd" clip-rule="evenodd" d="M42.4006 204.113C42.4006 204.113 42.4007 204.113 42.4007 204.113C42.4008 204.113 42.4008 204.113 42.4009 204.113L73.6273 177.313C95.8785 158.216 95.8785 123.781 73.6273 104.684L42.4009 77.8843C42.4008 77.8842 42.4008 77.8842 42.4007 77.8843C42.4007 77.8843 42.4006 77.8843 42.4006 77.8842L42.4006 0.656143C42.4006 0.293764 42.1068 -2.32233e-06 41.7444 -2.33979e-06C41.382 -2.35724e-06 41.0883 0.293761 41.0883 0.65614L41.0883 54.1336C41.0883 69.9245 34.1933 84.9283 22.2104 95.2125L20.659 96.544C-6.5799 119.922 -6.57988 162.076 20.6591 185.454L22.2098 186.784C34.1931 197.069 41.0883 212.073 41.0883 227.865L41.0883 281.344C41.0883 281.706 41.382 282 41.7444 282C42.1068 282 42.4006 281.706 42.4006 281.344L42.4006 204.113Z" fill="white"/>
</g>
<path d="M21 141.478L53 141.478M53 141.478L53 139.565L41 130M53 141.478L53 143.391L41 152" stroke="#111111" stroke-width="2"/>
<defs>
<linearGradient id="paint0_linear_937_63" x1="373" y1="91.0001" x2="91" y2="91.0001" gradientUnits="userSpaceOnUse">
<stop stop-opacity="0"/>
<stop offset="0.165322"/>
<stop offset="0.491207"/>
<stop offset="0.815634"/>
<stop offset="1" stop-opacity="0"/>
</linearGradient>
</defs>
</svg>
