<svg viewBox="0 0 1231 478" fill="none" xmlns="http://www.w3.org/2000/svg">
<g>
<path d="M711.695 453.583C711.695 453.583 711.969 454.225 712.152 454.5C711.787 454.683 711.421 454.958 711.146 455.142C711.329 454.591 711.604 454.133 711.787 453.583M732.369 505.403C741.792 499.258 751.305 493.388 761.094 487.701C777.377 478.163 794.483 469.725 812.23 461.47C833.453 471.559 856.506 477.979 880.107 481.098C915.601 485.959 952.559 482.565 987.412 472.109C1022.27 461.379 1054.74 443.035 1081.36 418.822C1107.89 394.608 1129.02 364.617 1139.82 330.865C1110.54 350.676 1083.83 368.561 1055.93 383.144C1028.3 397.91 1000.13 409.65 971.129 418.547C942.039 427.076 912.125 433.588 880.748 437.073C873.43 437.991 866.111 438.724 858.61 439.366C868.856 434.138 879.101 428.36 889.072 421.482C910.936 406.715 930.878 386.904 944.234 364.158C958.139 341.412 966.098 315.823 969.757 290.601C975.611 239.606 965.274 190.446 947.619 145.78C953.474 193.473 955.212 241.808 942.862 285.19C931.061 328.572 903.252 364.25 866.203 384.244C828.422 404.055 780.487 417.721 735.754 441.109C731.18 443.402 726.698 445.878 722.215 448.446C726.515 424.417 730.997 402.221 736.943 380.943C744.262 354.62 753.318 329.948 764.753 306.285C776.096 282.622 789.544 260.059 805.644 237.955C821.561 215.576 840.04 194.39 860.805 170.818C829.337 173.753 799.698 187.511 774.541 207.047C751.305 225.023 732.186 248.686 718.281 275.101C715.08 264.37 711.238 253.823 706.664 243.642C690.381 207.138 666.23 174.304 634.578 151.283C647.66 188.061 658.363 222.547 665.041 257.216C671.993 291.793 675.104 326.004 674.097 360.214C673.457 394.425 668.426 428.452 659.918 462.571C655.71 479.447 650.496 496.231 644.641 513.199C636.317 523.654 628.724 534.294 621.68 545.116C615.276 555.205 609.239 565.386 603.293 575.566C594.968 559.516 584.997 544.016 573.196 529.616C555.907 495.589 544.106 459.819 534.958 423.774C530.293 403.688 526.542 383.511 523.981 363.241C523.523 357.28 522.883 351.226 521.968 345.081C519.407 318.3 518.858 291.518 520.687 265.195C524.347 213.008 537.702 162.289 565.329 118.815C593.047 75.2491 636.408 41.7724 687.911 15.8164C630.828 18.8431 571.367 44.799 530.75 92.2168C493.61 133.948 473.576 188.245 466.898 242.358C448.877 226.583 427.653 214.659 405.516 207.78C368.924 196.774 330.137 197.508 296.839 211.633C331.418 220.713 362.063 232.269 388.226 248.044C414.023 263.82 435.429 284.181 450.523 307.936C458.299 319.951 464.154 333.341 469.093 347.924C473.027 372.963 479.339 397.543 487.846 421.206C491.78 437.715 496.354 454.591 502.392 471.101C499.556 469.541 496.811 467.89 493.793 466.515C467.63 454.041 438.082 447.437 408.443 446.887C391.062 446.704 374.23 448.813 358.038 451.656C343.951 444.411 330.686 436.523 318.519 427.81C292.997 409.833 272.231 388.188 256.039 363.149C222.741 313.806 213.044 251.254 215.057 179.348C192.096 207.964 180.478 244.743 178.557 282.713C177.185 320.684 187.247 360.948 209.202 393.691C229.602 425.701 260.247 451.014 294.46 465.231C280.281 468.166 266.559 470.55 252.838 471.559C229.511 473.393 205.909 472.018 182.307 467.432C134.83 458.352 89.0906 435.147 43.8086 406.532C72.7159 451.656 116.443 489.352 170.141 509.53C196.853 519.435 225.943 524.572 254.942 524.48C284.123 524.572 312.024 518.61 337.638 512.924C363.252 506.87 386.579 501.551 409.541 499.991C432.319 498.707 455.372 501.184 478.058 507.604C521.511 519.619 561.944 546.951 601.372 578.776C583.35 610.511 567.616 642.979 553.528 676.272C535.233 721.764 519.407 768.081 507.789 815.59C495.805 863.008 488.761 911.618 485.011 960.137C482.815 1008.93 484.828 1057.91 494.616 1105.23C497.086 1056.99 502.483 1009.94 511.997 963.714C521.968 917.58 534.409 872.271 549.412 827.789C580.423 739.557 618.204 652.425 668.243 575.658C680.318 556.398 694.04 538.146 707.853 523.93C711.512 520.903 714.073 517.785 718.556 514.574L732.369 504.944V505.403Z" fill="white"/>
<path d="M91.0138 340.319C96.2281 352.242 103.18 363.248 112.145 373.521C121.293 383.61 131.996 393.056 147.914 400.21C153.311 383.61 153.585 369.302 152.396 355.728C150.932 342.153 147.456 329.588 142.15 317.757C136.936 305.925 129.984 294.827 121.019 284.647C111.871 274.558 101.168 265.111 85.3421 257.957C79.9448 274.466 79.6704 288.774 80.9511 302.44C82.4147 315.922 85.8909 328.579 91.1052 340.411" fill="white"/>
<path d="M1083.28 296.946C1091.79 285.481 1098.19 273.283 1102.77 260.351C1107.34 247.51 1110.18 233.936 1111 219.72C1111.55 205.412 1110.54 190.462 1104.32 173.678C1088.86 182.666 1078.53 193.397 1069.84 204.862C1061.33 216.326 1054.92 228.525 1050.26 241.457C1045.59 254.297 1042.76 267.78 1041.93 282.088C1041.39 296.395 1042.39 311.345 1048.7 328.13C1064.25 319.233 1074.59 308.41 1083.28 296.946Z" fill="white"/>
<path d="M343.312 364.351C352.094 371.78 362.065 377.742 373.5 382.053C385.026 386.18 397.742 388.931 414.025 387.464C412.744 371.138 407.805 359.032 401.767 348.392C395.638 337.845 388.045 328.948 379.172 321.611C370.39 314.182 360.327 308.22 348.892 304.001C337.275 299.874 324.65 297.122 308.367 298.498C309.739 314.732 314.679 326.839 320.717 337.57C326.846 348.117 334.439 357.014 343.221 364.443" fill="white"/>
<path d="M817.811 288.962C810.95 297.583 805.552 307.397 801.893 318.587C798.417 329.96 796.313 342.341 798.509 358.209C814.426 356.833 826.044 351.88 836.289 345.918C846.352 339.865 854.677 332.344 861.537 323.631C868.398 315.01 873.704 305.104 877.363 293.915C880.839 282.542 883.035 270.16 880.748 254.293C864.831 255.76 853.304 260.621 843.059 266.583C832.996 272.728 824.672 280.157 817.811 288.779" fill="white"/>
<path d="M592.684 228.699C582.713 246.584 578.322 264.01 575.577 281.253C573.016 298.496 572.742 315.464 574.297 332.34C575.76 349.124 579.236 365.816 584.908 382.325C590.763 398.743 598.356 415.069 611.437 430.844C621.5 412.959 625.891 395.533 628.635 378.29C631.105 361.047 631.471 344.079 629.916 327.203C628.269 310.328 624.884 293.727 619.213 277.218C613.358 260.8 605.765 244.475 592.775 228.699" fill="white"/>
</g>
</svg>
