<svg width="1097" height="463" viewBox="0 0 1097 463" fill="none" xmlns="http://www.w3.org/2000/svg">
<path d="M668.694 438.583C668.694 438.583 668.968 439.225 669.151 439.5C668.785 439.683 668.419 439.958 668.145 440.142C668.328 439.591 668.602 439.133 668.785 438.583M689.368 490.403C698.79 484.258 708.304 478.388 718.092 472.701C734.376 463.163 751.482 454.725 769.229 446.47C790.452 456.559 813.505 462.979 837.106 466.098C872.6 470.959 909.557 467.565 944.411 457.109C979.264 446.379 1011.74 428.035 1038.36 403.822C1064.89 379.608 1086.02 349.617 1096.81 315.865C1067.54 335.676 1040.83 353.561 1012.93 368.144C985.302 382.91 957.126 394.65 928.128 403.547C899.037 412.076 869.124 418.588 837.747 422.073C830.428 422.991 823.11 423.724 815.609 424.366C825.854 419.138 836.1 413.36 846.071 406.482C867.935 391.715 887.877 371.904 901.233 349.158C915.138 326.412 923.096 300.823 926.755 275.601C932.61 224.606 922.273 175.446 904.618 130.78C910.472 178.473 912.21 226.808 899.861 270.19C888.06 313.572 860.25 349.25 823.201 369.244C785.421 389.055 737.486 402.721 692.753 426.109C688.179 428.402 683.696 430.878 679.214 433.446C683.513 409.417 687.996 387.221 693.942 365.943C701.26 339.62 710.317 314.948 721.752 291.285C733.095 267.622 746.542 245.059 762.643 222.955C778.56 200.576 797.039 179.39 817.804 155.818C786.336 158.753 756.696 172.511 731.54 192.047C708.304 210.023 689.185 233.686 675.28 260.101C672.079 249.37 668.237 238.823 663.663 228.642C647.379 192.138 623.229 159.304 591.577 136.283C604.659 173.061 615.362 207.547 622.04 242.216C628.992 276.793 632.102 311.004 631.096 345.214C630.456 379.425 625.424 413.452 616.917 447.571C612.709 464.447 607.495 481.231 601.64 498.199C593.315 508.654 585.723 519.294 578.679 530.116C572.275 540.205 566.238 550.386 560.292 560.566C551.967 544.516 541.996 529.016 530.195 514.616C512.905 480.589 501.105 444.819 491.957 408.774C487.291 388.688 483.541 368.511 480.979 348.241C480.522 342.28 479.882 336.226 478.967 330.081C476.406 303.3 475.857 276.518 477.686 250.195C481.345 198.008 494.701 147.289 522.328 103.815C550.046 60.2491 593.407 26.7724 644.909 0.816406C587.827 3.84307 528.365 29.799 487.749 77.2168C450.608 118.948 430.575 173.245 423.897 227.358C405.875 211.583 384.652 199.659 362.514 192.78C325.923 181.774 287.136 182.508 253.838 196.633C288.417 205.713 319.062 217.269 345.225 233.044C371.022 248.82 392.428 269.181 407.522 292.936C415.298 304.951 421.152 318.341 426.092 332.924C430.026 357.963 436.338 382.543 444.845 406.206C448.779 422.715 453.353 439.591 459.39 456.101C456.555 454.541 453.81 452.89 450.791 451.515C424.629 439.041 395.081 432.437 365.442 431.887C348.061 431.704 331.229 433.813 315.037 436.656C300.949 429.411 287.685 421.523 275.518 412.81C249.996 394.833 229.23 373.188 213.038 348.149C179.74 298.806 170.043 236.254 172.056 164.348C149.094 192.964 137.477 229.743 135.556 267.713C134.183 305.684 144.246 345.948 166.201 378.691C186.601 410.701 217.246 436.014 251.459 450.231C237.28 453.166 223.558 455.55 209.836 456.559C186.509 458.393 162.908 457.018 139.306 452.432C91.8287 443.352 46.0894 420.147 0.807373 391.532C29.7147 436.656 73.4415 474.352 127.14 494.53C153.851 504.435 182.942 509.572 211.94 509.48C241.122 509.572 269.023 503.61 294.637 497.924C320.251 491.87 343.578 486.551 366.539 484.991C389.318 483.707 412.37 486.184 435.057 492.604C478.51 504.619 518.943 531.951 558.37 563.776C540.349 595.511 524.615 627.979 510.527 661.272C492.231 706.764 476.405 753.081 464.788 800.59C452.804 848.008 445.76 896.618 442.009 945.137C439.814 993.93 441.827 1042.91 451.615 1090.23C454.085 1041.99 459.482 994.939 468.996 948.714C478.967 902.58 491.408 857.271 506.411 812.789C537.422 724.557 575.203 637.425 625.241 560.658C637.317 541.398 651.038 523.146 664.852 508.93C668.511 505.903 671.072 502.785 675.555 499.574L689.368 489.944V490.403Z" />
</svg>
