<svg width="1231" height="559" viewBox="0 0 1231 559" fill="none" xmlns="http://www.w3.org/2000/svg">
<g clip-path="url(#clip0_453_4695)">
<path d="M711.695 -93.4175C711.695 -93.4175 711.969 -92.7754 712.152 -92.5003C711.787 -92.3168 711.421 -92.0417 711.146 -91.8583C711.329 -92.4086 711.604 -92.8672 711.787 -93.4175M732.369 -41.5972C741.792 -47.7423 751.305 -53.6122 761.094 -59.2987C777.377 -68.8373 794.483 -77.2752 812.23 -85.5298C833.453 -75.4409 856.506 -69.0207 880.107 -65.9023C915.601 -61.0413 952.559 -64.4348 987.412 -74.8906C1022.27 -85.6215 1054.74 -103.965 1081.36 -128.178C1107.89 -152.392 1129.02 -182.383 1139.82 -216.135C1110.54 -196.324 1083.83 -178.439 1055.93 -163.856C1028.3 -149.09 1000.13 -137.35 971.129 -128.453C942.039 -119.924 912.125 -113.412 880.748 -109.927C873.43 -109.009 866.111 -108.276 858.61 -107.634C868.856 -112.862 879.101 -118.64 889.072 -125.518C910.936 -140.285 930.878 -160.096 944.234 -182.842C958.139 -205.588 966.098 -231.177 969.757 -256.399C975.611 -307.394 965.274 -356.554 947.619 -401.22C953.473 -353.527 955.212 -305.192 942.862 -261.81C931.061 -218.428 903.252 -182.75 866.203 -162.756C828.422 -142.945 780.487 -129.279 735.754 -105.891C731.18 -103.598 726.698 -101.122 722.215 -98.5536C726.515 -122.584 730.997 -144.779 736.943 -166.057C744.262 -192.38 753.318 -217.052 764.753 -240.715C776.096 -264.378 789.543 -286.941 805.644 -309.045C821.561 -331.424 840.04 -352.61 860.805 -376.182C829.337 -373.247 799.698 -359.489 774.541 -339.953C751.305 -321.977 732.186 -298.314 718.282 -271.899C715.08 -282.63 711.238 -293.177 706.664 -303.358C690.381 -339.862 666.23 -372.696 634.578 -395.717C647.66 -358.939 658.363 -324.453 665.041 -289.784C671.993 -255.207 675.104 -220.996 674.097 -186.786C673.457 -152.575 668.426 -118.548 659.918 -84.4292C655.71 -67.5532 650.496 -50.769 644.641 -33.8013C636.317 -23.3455 628.724 -12.7063 621.68 -1.88372C615.276 8.20517 609.239 18.3858 603.293 28.5664C594.968 12.5159 584.997 -2.98432 573.196 -17.3839C555.907 -51.411 544.106 -87.1807 534.958 -123.226C530.293 -143.312 526.542 -163.489 523.981 -183.759C523.523 -189.721 522.883 -195.774 521.968 -201.919C519.407 -228.7 518.858 -255.482 520.687 -281.805C524.347 -333.992 537.702 -384.711 565.329 -428.185C593.047 -471.751 636.408 -505.228 687.911 -531.184C630.828 -528.157 571.367 -502.201 530.75 -454.783C493.61 -413.052 473.576 -358.755 466.898 -304.642C448.877 -320.417 427.653 -332.341 405.516 -339.22C368.924 -350.226 330.137 -349.492 296.839 -335.367C331.418 -326.287 362.063 -314.731 388.226 -298.956C414.023 -283.18 435.429 -262.819 450.523 -239.064C458.299 -227.049 464.154 -213.659 469.093 -199.076C473.027 -174.037 479.339 -149.457 487.846 -125.794C491.78 -109.285 496.354 -92.4086 502.392 -75.8995C499.556 -77.4587 496.811 -79.1096 493.793 -80.4853C467.63 -92.9589 438.082 -99.5625 408.443 -100.113C391.062 -100.296 374.23 -98.1868 358.038 -95.3435C343.95 -102.589 330.686 -110.477 318.519 -119.19C292.997 -137.167 272.231 -158.812 256.039 -183.851C222.741 -233.194 213.044 -295.746 215.057 -367.652C192.096 -339.036 180.478 -302.257 178.557 -264.287C177.185 -226.316 187.247 -186.052 209.202 -153.309C229.602 -121.299 260.247 -95.9855 294.46 -81.7694C280.281 -78.8344 266.559 -76.4498 252.838 -75.4409C229.511 -73.6065 205.909 -74.9823 182.307 -79.5682C134.83 -88.6482 89.0906 -111.853 43.8086 -140.468C72.7159 -95.3435 116.443 -57.6477 170.141 -37.47C196.853 -27.5645 225.943 -22.4284 254.942 -22.5201C284.123 -22.4284 312.024 -28.39 337.638 -34.0764C363.252 -40.1298 386.579 -45.4494 409.541 -47.0086C432.319 -48.2926 455.372 -45.8162 478.058 -39.396C521.511 -27.3811 561.944 -0.0493602 601.372 31.7765C583.35 63.5107 567.616 95.9785 553.528 129.272C535.233 174.764 519.407 221.081 507.789 268.59C495.805 316.008 488.761 364.618 485.011 413.137C482.815 461.93 484.828 510.907 494.616 558.233C497.086 509.99 502.483 462.939 511.997 416.714C521.968 370.58 534.409 325.271 549.412 280.789C580.423 192.557 618.204 105.425 668.243 28.6581C680.318 9.39751 694.04 -8.85421 707.853 -23.0704C711.512 -26.097 714.073 -29.2154 718.556 -32.4255L732.369 -42.0558V-41.5972Z" fill="white"/>
<path d="M412.103 131.956C395.454 123.884 381.275 114.713 367.919 104.716C354.472 94.6267 342.305 82.9786 330.138 69.3127C317.972 55.4634 306.445 39.6881 292.907 20.244C274.428 64.4517 294.37 119.207 333.981 149.198C336.908 151.4 340.11 153.234 343.22 155.252C334.529 158.003 326.022 161.397 317.697 165.157C303.884 169.009 290.162 172.495 276.532 174.787C237.47 181.483 199.507 180.566 167.581 166.716C135.106 153.326 110.315 126.544 90.647 91.9669C81.1332 74.9075 72.6257 56.564 66.7711 37.1199C60.2761 17.6759 57.0743 -2.50186 57.6232 -24.8809C45.0906 -6.17055 40.2422 17.6759 39.6934 40.6969C39.6934 63.8097 43.0781 87.1976 50.4879 109.577C57.9891 131.864 69.1495 153.417 84.9753 172.861C101.259 192.581 121.841 207.806 145.351 218.17C173.71 230.552 203.898 233.578 232.714 230.552C223.566 241.649 215.241 253.297 208.38 265.771C192.28 295.579 181.76 329.331 185.236 363.083C204.172 335.751 223.474 312.73 243.874 291.452C264.182 270.265 285.771 251.463 308.915 234.771C331.877 217.895 356.301 203.403 382.739 190.563C394.357 184.968 406.34 179.74 418.781 174.696C436.803 173.32 454.184 167.817 468.912 156.811C446.957 148.006 428.753 140.485 412.103 132.047" fill="white"/>
<path d="M477.233 53.2327C470.006 42.2267 461.316 32.8715 451.528 24.9838C441.74 17.1878 430.671 10.7676 418.321 6.18178C405.788 1.68764 392.249 -1.43075 375.234 -0.238428C377.796 16.6375 383.925 29.2028 390.969 40.484C398.196 51.5818 406.886 60.9369 416.583 68.8246C426.371 76.7123 437.348 83.0408 449.698 87.7184C462.231 92.2125 475.77 95.3309 492.785 94.1386C490.223 77.1709 484.186 64.6056 477.05 53.3244" fill="white"/>
<path d="M212.404 124.981C223.839 132.502 236.646 138.922 253.752 141.857C254.667 124.43 251.283 110.489 246.617 97.649C241.769 84.9003 235.091 73.5274 227.041 63.3468C218.991 53.1662 209.385 44.0861 198.133 36.4736C186.699 28.9528 173.892 22.5326 156.694 19.5977C155.687 37.0239 159.072 50.9649 163.737 63.897C168.677 76.6457 175.264 88.0187 183.314 98.1993C191.455 108.38 200.969 117.368 212.313 124.981" fill="white"/>
<path d="M1178.51 36.8146C1183.09 13.7019 1183.45 -9.86943 1180.43 -32.8904C1176.96 -55.6363 1169.09 -78.6573 1154.27 -95.625C1157.75 -73.5212 1157.11 -53.16 1153.08 -32.9822C1149.79 -12.9878 1143.66 6.3645 1136.43 24.5245C1121.34 61.3031 1100.12 91.1112 1069.65 108.537C1039.83 126.422 1002.23 132.2 962.624 130.55C948.811 129.999 934.723 128.348 920.544 126.239C910.664 123.212 900.693 120.828 890.63 119.085C893.741 117.067 896.942 114.958 900.053 112.573C904.901 108.721 910.847 103.126 914.964 97.8983C918.714 92.8538 922.373 87.9011 925.301 82.3063C931.338 71.4837 935.546 59.6522 937.833 47.729C942.133 23.8825 938.931 -0.514295 926.673 -20.6921C916.153 0.311159 907.279 17.6457 897.125 32.5039C892.185 39.933 886.971 46.6284 881.665 52.9568C878.921 56.0752 876.268 59.1019 873.341 62.0368C870.596 64.5132 869.133 66.0724 865.839 68.457C853.673 77.6287 836.841 87.8094 820.466 98.7237C803.725 109.73 787.259 122.295 769.695 137.245C778.935 140.455 788.174 142.106 797.23 142.656C819.094 147.426 839.585 153.02 859.436 159.624C887.246 168.979 913.408 180.26 938.291 194.018C963.356 207.684 987.232 223.551 1010.01 241.894C1032.97 260.421 1055.11 280.691 1077.34 305.363C1076.42 271.427 1061.7 239.326 1041.94 211.811C1033.52 200.255 1023.73 189.799 1013.3 179.985C1042.3 179.251 1071.76 172.373 1098.38 156.506C1120.42 143.298 1138.9 125.505 1152.53 103.86C1165.8 82.5815 1174.12 59.7439 1178.7 36.6312" fill="white"/>
<path d="M1189.86 134.677C1178.51 140.822 1168.82 148.526 1160.58 157.423C1152.26 166.32 1145.31 176.592 1140.09 188.332C1134.97 200.255 1131.04 213.279 1131.31 230.155C1148.14 229.146 1160.86 224.285 1172.29 218.323C1183.64 212.178 1193.33 204.474 1201.57 195.577C1209.8 186.589 1216.75 176.317 1221.97 164.577C1227.09 152.654 1231.02 139.63 1230.84 122.754C1214.1 123.855 1201.38 128.715 1189.95 134.677" fill="white"/>
<path d="M748.106 35.8019C742.435 47.9086 738.044 61.1159 737.678 78.267C754.784 77.3499 767.774 72.4888 779.666 66.4355C791.376 60.1987 801.438 52.4945 810.129 43.4145C818.819 34.3345 826.229 23.9704 831.992 12.0472C837.573 -0.0595076 842.055 -13.2668 842.421 -30.3262C825.406 -29.3173 812.324 -24.4563 800.524 -18.4029C788.906 -12.1662 778.752 -4.46191 769.97 4.61809C761.188 13.6064 753.869 24.0621 748.106 35.8937" fill="white"/>
<path d="M997.476 13.7221C990.798 24.9116 985.675 37.0183 982.474 50.3173C979.455 63.708 977.808 77.9241 981.01 95.0752C997.659 89.9391 1009.46 81.868 1019.89 72.9714C1030.13 63.9831 1038.46 53.8025 1045.23 42.7047C1052 31.6069 1057.12 19.4085 1060.32 6.20127C1063.34 -7.18944 1064.9 -21.4056 1061.69 -38.6484C1045.05 -33.5123 1033.15 -25.5329 1022.72 -16.6363C1012.48 -7.64801 1004.15 2.53258 997.476 13.7221Z" fill="white"/>
</g>
<defs>
<clipPath id="clip0_453_4695">
<rect width="1231" height="559" fill="white"/>
</clipPath>
</defs>
</svg>
