<svg width="49" height="48" viewBox="0 0 49 48" fill="none" xmlns="http://www.w3.org/2000/svg">
<circle cx="24.75" cy="24" r="23.5" stroke="white"/>
<path fill-rule="evenodd" clip-rule="evenodd" d="M33.6167 20.4281L33.6175 20.4363C33.6228 20.4961 33.7499 21.9171 33.75 23.3439V24.6776C33.75 26.1044 33.6228 27.5254 33.6175 27.5852L33.6154 27.6035C33.5978 27.7437 33.4252 28.9924 32.8285 29.6347C32.1126 30.4147 31.305 30.4996 30.9168 30.5404L30.9165 30.5404C30.8794 30.5443 30.8456 30.5478 30.8156 30.5517L30.7841 30.555C28.4045 30.7263 24.8109 30.7497 24.7749 30.7499L24.7694 30.75L24.7639 30.7499C24.5813 30.7473 20.2734 30.6835 18.8995 30.554L18.8579 30.5483C18.816 30.541 18.7551 30.5342 18.6844 30.5261L18.6787 30.5255C18.2156 30.473 17.3547 30.3754 16.6738 29.6375C16.0502 28.9882 15.8986 27.7355 15.8833 27.5943L15.8824 27.5854C15.877 27.5255 15.75 26.1044 15.75 24.6776V23.3439C15.75 21.9171 15.877 20.4959 15.8824 20.4363L15.8844 20.418C15.9022 20.2777 16.0746 19.0289 16.6713 18.3868C17.3975 17.5958 18.2097 17.5029 18.6 17.4583C18.6054 17.4577 18.6108 17.4571 18.6162 17.4565C18.6406 17.4537 18.6633 17.4511 18.6843 17.4483L18.716 17.445C21.1171 17.2737 24.7108 17.2503 24.7468 17.2501L24.7499 17.25L24.7531 17.2501C24.7891 17.2503 28.3828 17.2737 30.7624 17.445L30.7939 17.4483C30.8207 17.4518 30.8506 17.4552 30.8833 17.4589C31.2781 17.5033 32.099 17.5961 32.8232 18.3595C33.4497 19.0086 33.6014 20.2846 33.6167 20.4281ZM23.4343 21.3078L27.6227 23.4015C27.8706 23.5254 28.0239 23.7626 28.0229 24.0207C28.0218 24.2788 27.8666 24.5149 27.6179 24.6371L23.4294 26.6947C23.3144 26.7513 23.1894 26.7794 23.0647 26.7794C22.9286 26.7794 22.7928 26.7459 22.6703 26.679C22.4357 26.5509 22.2957 26.3254 22.2957 26.0758V21.9244C22.2957 21.6736 22.4365 21.4476 22.6727 21.3197C22.9088 21.1919 23.1935 21.1874 23.4343 21.3078Z" fill="white"/>
</svg>
